. 
 
http://www.torrenting.com          :     Once & For all ;)


               www . Torrenting . Com 

(((((((((((((= Enjoy No RAR releases =))))))))))))))))))))


...................................NFO:....................................

.





UUUUUUUUUUUUUUUUUUUUUUUU
UUUUUUUUUUUUUUUUUUUUUUUUUUUUUU
UUUUUUUUUUUUUUU
UUUUUUUUU
UUUUUU
UUUUUUU
UUUUUUUUUUU
UUUUUUUUUUU
UUUUUUUUUUUUUU
UUUUUUUUUUU
UUUUUUUUU
UUUUUUUU
UUUUUUUU
UUUUUUUU
UUUUUUUUU
UUUUUUUUU
UUUUUUUUU
UUUUUUUUU
UUUUUUUUUUUUUU
UUUUUUUUUUUUUUUUUUUUUUUU
UUUUUUUUUUUUUUUUUUUUUUUUUU
UUUUUUUUU










U?U?U?U?U?U?U?

EAAUAA?EAAUAAAAAUEAAUAA?AAA?UAAUUAAAAAU
EAA?  EAA?AAAAAA?EAA?        AAAAAA?
  AAAU        
              
UAAAAAU      UAAAAAUAAAAAA?UAAAAAU        AAAAAA?
            AAAAAA?UAAAAAUAAAAAA?        UAAAAAU
                    
                    
AAAU      AAAU      AAAAAAAAAUAAAAAAAAAUAAAAAAAAAUAAAU  AAAU   AAAU   AAAAAAAAAU

Removal.2011.DVDRip.XViD.AC3-SIC

Poster:

IMDB Link: 
http://www.imdb.com/title/tt1493828/

Description:
Gothic horror meets industrial-strength cleaning products in 
this spine-tingler about a pill-popping cleaning service 
employee and a sprawling mansion with secrets of its own. 

MediaInfo:
Format                           : AVI
Format/Info                      : Audio Video Interleave
File size                        : 1.39 GiB
Duration                         : 1h 30mn
Overall bit rate                 : 2 198 Kbps

Video
ID                               : 0
Format                           : MPEG-4 Visual
Format profile                   : Advanced Simple@L5
Format settings, BVOP            : 2
Format settings, QPel            : No
Format settings, GMC             : No warppoints
Format settings, Matrix          : Default (MPEG)
Muxing mode                      : Packed bitstream
Codec ID                         : XVID
Codec ID/Hint                    : XviD
Duration                         : 1h 30mn
Bit rate                         : 1 870 Kbps
Width                            : 720 pixels
Height                           : 304 pixels
Display aspect ratio             : 2.35:1
Frame rate                       : 23.976 fps
Color space                      : YUV
Chroma subsampling               : 4:2:0
Bit depth                        : 8 bits
Scan type                        : Progressive
Compression mode                 : Lossy
Bits/(Pixel*Frame)               : 0.356
Stream size                      : 1.18 GiB (85%)
Writing library                  : XviD 64

Audio
ID                               : 1
Format                           : AC-3
Format/Info                      : Audio Coding 3
Mode extension                   : CM (complete main)
Codec ID                         : 2000
Duration                         : 1h 30mn
Bit rate mode                    : Constant
Bit rate                         : 320 Kbps
Channel(s)                       : 6 channels
Channel positions                : Front: L C R, Side: L R, LFE
Sampling rate                    : 48.0 KHz
Bit depth                        : 16 bits
Compression mode                 : Lossy
Stream size                      : 207 MiB (15%)
Alignment                        : Aligned on interleaves
Interleave, duration             : 64 ms (1.53 video frames)
Interleave, preload duration     : 192 ms

Screenshots:

Note : 
Just Another fine release :P 

Source: 
NTSC DVDR-GRiLL :) Thanks 

Enjoy!

Respects to T00NG0D, ELEKTRI4KA, PA, YeFsTe, Box, MrRep and everyone in the struggle...